/* XPM */
static char *_4e70f3e1faf47a7aaa08305fb9b9aa8YnU8gcrN1MvRcv5o[] = {
/* columns rows colors chars-per-pixel */
"10 10 25 1 ",
"  c None",
". c #FFFFFF",
"X c #FFFFFF",
"o c #FFFFFF",
"O c #FFFFFF",
"+ c #FFFFFF",
"@ c #FFFFFF",
"# c #FFFFFF",
"$ c #FFFFFF",
"% c #FFFFFF",
"& c #FFFFFF",
"* c #FFFFFF",
"= c #FFFFFF",
"- c #FFFFFF",
"; c #FFFFFF",
": c #FFFFFF",
"> c #FFFFFF",
", c #FFFFFF",
"< c #FFFFFF",
"1 c #FFFFFF",
"2 c #FFFFFF",
"3 c #FFFFFF",
"4 c #FFFFFF",
"5 c #FFFFFF",
"6 c #FFFFFF",
/* pixels */
"1-X     X1",
"1:1X    &1",
"11-1.   &1",
"1: 3&   &1",
"13   O  -1",
"11   O  -1",
"11   :& &1",
"13    @1&1",
"11     -@1",
"16     551"
};
